<?xml version="1.0" encoding="UTF-8" standalone="no"?>
<!-- Copyright 2017 mathsisfun.com -->
<svg xmlns="http://www.w3.org/2000/svg" xmlns:xlink="http://www.w3.org/1999/xlink" width="318.2" height="274.9" version="1.1">
<defs>
<marker id="id4" style="overflow:visible;" orient="auto">
<path transform="matrix(-0.8,0,0,-0.8,-10,0)" style="fill:#0169c9; stroke:#0169c9; stroke-width:1pt;" d="M 0,0 5,-5 -12.5,0 5,5 Z"/>
</marker>
<marker id="id2" style="overflow:visible;" orient="auto">
<path transform="matrix(-0.8,0,0,-0.8,-10,0)" style="fill:#0169c9; stroke:#0169c9; stroke-width:1pt;" d="M 0,0 5,-5 -12.5,0 5,5 Z"/>
</marker>
<marker id="id1" style="overflow:visible;" orient="auto">
<path transform="matrix(-0.8,0,0,-0.8,-10,0)" style="fill:#0169c9; stroke:#0169c9; stroke-width:1pt;" d="M 0,0 5,-5 -12.5,0 5,5 Z"/>
</marker>
<marker id="id3" style="overflow:visible;" orient="auto">
<path transform="matrix(-0.8,0,0,-0.8,-10,0)" style="fill:#0169c9; stroke:#0169c9; stroke-width:1pt;" d="M 0,0 5,-5 -12.5,0 5,5 Z"/>
</marker>
<pattern height="478" width="227.1" patternUnits="userSpaceOnUse" patternTransform="matrix(0.82659,-0.5628046,0.5628046,0.82659,1365.417,4872.8044)">
<image x="-227.1" y="0" width="227.1" height="478" transform="scale(-1,1)" xlink:href="file:///C:/Images/SVG/Banana.jpg"/>
</pattern>
</defs>
<g transform="translate(-1779.21,-1056.41)">
<ellipse cx="1817.6" cy="1200" rx="37.9" ry="108.8" style="overflow:visible; fill:#2ca4fa; fill-opacity:0.24; stroke:black; stroke-width:0.98;"/>
<ellipse cx="1933.5" cy="1200" rx="37.9" ry="108.8" style="overflow:visible; fill:#ffff99; fill-opacity:0.24; stroke:black; stroke-width:0.98;"/>
<path style="marker-end:url(#id1); fill:#0169c9; fill-opacity:0.75; stroke:#0169c9; stroke-width:0.86;" d="m 1825,1197.4 96.3,3.8"/>
<path style="marker-end:url(#id2); fill:#0169c9; fill-opacity:0.75; stroke:#0169c9; stroke-width:0.86;" d="m 1825.7,1217.3 93.7,18.6"/>
<path style="marker-end:url(#id3); fill:#0169c9; fill-opacity:0.75; stroke:#0169c9; stroke-width:0.86;" d="m 1824.9,1237.4 93.8,32.4"/>
<path style="marker-end:url(#id4); fill:#0169c9; fill-opacity:0.75; stroke:#0169c9; stroke-width:0.86;" d="m 1823.3,1176.8 96.8,-10.1"/>
<text x="1931.8" y="1134.7" style="font-family:'Comic Sans MS'; font-size:16.7px; overflow:visible; fill:#010009; stroke-width:0.98;">1</text>
<text x="1929.9" y="1152.7" style="font-family:'Comic Sans MS'; font-size:16.7px; overflow:visible; fill:#010009; stroke-width:0.98;">2</text>
<text x="1929.7" y="1170.7" style="font-family:'Comic Sans MS'; font-size:16.7px; overflow:visible; fill:#010009; stroke-width:0.98;">3</text>
<text x="1929.1" y="1188.8" style="font-family:'Comic Sans MS'; font-size:16.7px; overflow:visible; fill:#010009; stroke-width:0.98;">4</text>
<text x="1929.8" y="1206.7" style="font-family:'Comic Sans MS'; font-size:16.7px; overflow:visible; fill:#010009; stroke-width:0.98;">5</text>
<text x="1929.3" y="1224.9" style="font-family:'Comic Sans MS'; font-size:16.7px; overflow:visible; fill:#010009; stroke-width:0.98;">6</text>
<text x="1929.9" y="1242.7" style="font-family:'Comic Sans MS'; font-size:16.7px; overflow:visible; fill:#010009; stroke-width:0.98;">7</text>
<text x="1929.8" y="1260.8" style="font-family:'Comic Sans MS'; font-size:16.7px; overflow:visible; fill:#010009; stroke-width:0.98;">8</text>
<text x="1929.4" y="1278.8" style="font-family:'Comic Sans MS'; font-size:16.7px; overflow:visible; fill:#010009; stroke-width:0.98;">9</text>
<text x="1928" y="1297" style="font-family:'Comic Sans MS'; font-size:16.7px; overflow:visible; fill:#010009; stroke-width:0.98;">10</text>
<text x="1814.6" y="1181.4" style="font-family:'Comic Sans MS'; font-size:16.7px; overflow:visible; fill:#010009; stroke-width:0.98;">1</text>
<text x="1812.8" y="1201.8" style="font-family:'Comic Sans MS'; font-size:16.7px; overflow:visible; fill:#010009; stroke-width:0.98;">2</text>
<text x="1812.5" y="1222.2" style="font-family:'Comic Sans MS'; font-size:16.7px; overflow:visible; fill:#010009; stroke-width:0.98;">3</text>
<text x="1811.9" y="1242.8" style="font-family:'Comic Sans MS'; font-size:16.7px; overflow:visible; fill:#010009; stroke-width:0.98;">4</text>
<text x="1876.5" y="1039.8" transform="scale(0.964656,1.03664)" style="font-family:'Comic Sans MS'; font-size:30.2px; overflow:visible; fill:#0169c9; stroke-width:1.11;">x</text>
<text x="1970.9" y="1042.1" transform="scale(0.964656,1.03664)" style="font-family:'Comic Sans MS'; font-size:30.2px; overflow:visible; fill:#0169c9; stroke-width:1.11;">2x+1</text>
<path style="overflow:visible; fill:#0169c9; stroke-width:1.11;" d="m 1843.5,1070.5 c 2.2,-1 4.6,-1.4 7,-1.4 2.3,-0.2 4.6,0 6.9,-0.2 1.5,0 3,0.1 4.5,0.1 2.2,0 4.4,-0.1 6.6,0.3 1.1,0.2 2.3,0 3.4,0.2 1.2,0 2.3,0 3.5,0.1 0.8,-0.2 2.1,0 2.6,-0.4 -0.3,0.9 -0.7,1.9 -1,2.8 -0.9,0.6 -2,0.1 -3,0.5 -1.2,-0.2 -2.5,-0.1 -3.7,-0.1 -1.7,-0.1 -3.3,-0.3 -4.9,-0.5 -2.3,-0.1 -4.6,0.1 -6.8,-0.2 -1.9,-0.1 -3.8,0 -5.7,0.1 -2.2,0 -4.4,0 -6.5,0.3 -1.2,0 -3.2,1.2 -3.7,1 0.3,-0.8 0.6,-1.6 1,-2.4 z"/>
<path style="overflow:visible; fill:#0169c9; stroke-width:1.11;" d="m 1866.3,1062 c 1.3,1.3 2.6,2.7 4.3,3.5 1.9,0.5 3.6,1.6 5.6,2 1.2,0.6 2.5,0.6 3.7,0.5 0.3,0.4 1.6,-0.2 1.2,0.5 -0.3,0.9 -0.7,1.7 -1,2.5 -0.6,0 -1.1,0 -1.7,-0.1 -1.1,0 -2.1,0 -3.1,-0.4 -1.5,-0.4 -2.8,-0.9 -4.2,-1.5 -1.3,-0.5 -2.6,-0.8 -3.6,-1.8 -0.9,-0.8 -1.9,-1.6 -2.5,-2.5 0.4,-0.9 0.9,-1.8 1.3,-2.7 z"/>
<path style="overflow:visible; fill:#0169c9; stroke-width:1.11;" d="m 1868.5,1076.1 c 2.1,-2.1 4.2,-4.3 6.8,-5.7 1.4,-0.8 2.9,-1.3 4.4,-1.7 0.5,0.1 1.5,-0.2 1.6,0 -0.4,0.9 -0.7,1.8 -1.1,2.7 -1.1,0.1 -2.2,0.3 -3.3,0.8 -1.4,0.5 -2.7,1.1 -3.8,2 -2,1.4 -3.8,3.1 -5.4,4.9 0.3,-1 0.6,-2 0.9,-3 z"/>
<text x="1781.9" y="1330" style="font-family:'Comic Sans MS'; font-size:21.8px; overflow:visible; fill:#0197fd; stroke-width:0.98;">Domain</text>
<text x="1891.1" y="1330" style="font-family:'Comic Sans MS'; font-size:21.8px; overflow:visible; fill:#70de3a; stroke-width:0.98;">Codomain</text>
<text x="2017.8" y="1240.3" style="font-family:'Comic Sans MS'; font-size:16px; font-style:italic; overflow:visible; fill:#d9bb7a; stroke-width:0.98;">(or Image)</text>
<path style="fill:#d9bb7a; stroke:#d9bb7a; stroke-width:0.84;" d="m 1944.3,1167.8 79.7,44.5"/>
<path style="fill:#d9bb7a; stroke:#d9bb7a; stroke-width:0.84;" d="m 1942,1201.6 82,10.8"/>
<path style="fill:#d9bb7a; stroke:#d9bb7a; stroke-width:0.84;" d="m 1942.9,1237.8 81.2,-25.4"/>
<path style="fill:#d9bb7a; stroke:#d9bb7a; stroke-width:0.84;" d="m 1943,1272.3 81.3,-59.9"/>
<text x="2029" y="1219.4" style="font-family:'Comic Sans MS'; font-size:21.8px; overflow:visible; fill:#d9bb7a; stroke-width:0.98;">Range</text>
<text x="1809.5" y="1115.3" style="font-family:'Comic Sans MS'; font-size:24.2px; overflow:visible; fill:#0197fd; stroke-width:0.98;">A</text>
<text x="1926.5" y="1115.1" style="font-family:'Comic Sans MS'; font-size:24.2px; overflow:visible; fill:#70de3a; stroke-width:0.98;">B</text>
</g>
</svg>
